<svg id="Logo_PDV" xmlns="http://www.w3.org/2000/svg" version="1.1" viewBox="0 0 288.5 58.5" preserveAspectRatio="xMinYMid meet">
	<!-- Generator: Adobe Illustrator 29.3.1, SVG Export Plug-In . SVG Version: 2.1.0 Build 151)  -->
	<defs>
		<style>
			.st0 {
			opacity: .5;
			}

			.st0, .st1, .st2 {
			fill: #aa282f;
			}

			.st1 {
			opacity: .3;
			}
		</style>
	</defs>
	<g id="Wortmarke">
		<g>
			<path class="st2" d="M7.4,25.7c-1.6,1.6-4.4,1.5-6-.1-1.7-1.7-1.8-4.4-.1-6,1.8-1.8,2.7-.9,4.7-2.9,2-2,1.1-2.9,2.9-4.7,1.6-1.6,4.4-1.5,6,.1,1.7,1.7,1.8,4.4.1,6-1.8,1.8-2.7.9-4.7,2.9-2,2-1.1,2.9-2.9,4.7Z"></path>
			<path class="st0" d="M16.3,10.5c-1.7-1.7-1.7-4.5,0-6.2,1.7-1.7,4.5-1.7,6.2,0,1.7,1.7,1.7,4.5,0,6.2-1.7,1.7-4.5,1.7-6.2,0Z"></path>
			<path class="st0" d="M30.3,18c1.6-1.6,1.5-4.4-.1-6-1.7-1.7-4.4-1.8-6-.1-1.8,1.8-.9,2.7-2.9,4.7-2,2-2.9,1.1-4.7,2.9-1.6,1.6-1.5,4.4.1,6,1.7,1.7,4.4,1.8,6,.1,1.8-1.8.9-2.7,2.9-4.7,2-2,2.9-1.1,4.7-2.9Z"></path>
			<path class="st2" d="M15.2,27c-1.7-1.7-4.5-1.7-6.2,0-1.7,1.7-1.7,4.5,0,6.2,1.7,1.7,4.5,1.7,6.2,0,1.7-1.7,1.7-4.5,0-6.2Z"></path>
			<path class="st0" d="M22.6,41c-1.6,1.6-4.4,1.5-6-.1-1.7-1.7-1.8-4.4-.1-6,1.8-1.8,2.7-.9,4.7-2.9,2-2,1.1-2.9,2.9-4.7,1.6-1.6,4.4-1.5,6,.1,1.7,1.7,1.8,4.4.1,6-1.8,1.8-2.7.9-4.7,2.9-2,2-1.1,2.9-2.9,4.7Z"></path>
			<path class="st1" d="M31.6,25.8c-1.7-1.7-1.7-4.5,0-6.2,1.7-1.7,4.5-1.7,6.2,0,1.7,1.7,1.7,4.5,0,6.2-1.7,1.7-4.5,1.7-6.2,0Z"></path>
			<g id="PDV_GmbH">
				<path class="st2" d="M66.1,26.8h-4.1v15.1h-7.3V3.1h11c7.8,0,13.2,3.8,13.2,11.8s-5.2,11.9-12.8,11.9ZM64.4,8.6h-2.5v12.9h3c4.4,0,6.5-2.3,6.5-6.5s-2.6-6.4-7-6.4Z"></path>
				<path class="st2" d="M92.9,42h-10.3V3.1h9.6c12.8,0,19,7.5,19,19.4s-6.3,19.4-18.3,19.4ZM92.3,8.7h-2.3v27.6h2.8c8.2,0,10.9-6.5,10.9-13.8s-2.6-13.9-11.3-13.9Z"></path>
				<path class="st2" d="M131.8,42h-8.2L112.1,3.1h7.9l7.9,30.8,7.6-30.8h7.6l-11.3,38.8Z"></path>
				<path class="st2" d="M174.1,42.6c-12.3,0-17.8-8.7-17.8-20s7-20,18.9-20,6.8.8,9.3,1.7l-.4,6.1c-2.4-1.3-5.1-2.3-8.6-2.3-8,0-11.7,7.1-11.7,14.5s2.9,14.5,11,14.5,2.6-.2,3.8-.8v-10.7h-5.5v-5.2h12.3v20.2c-3.3,1.5-7.8,2.1-11.3,2.1Z"></path>
				<path class="st2" d="M220.5,42v-19.3c0-2.6-.5-5.4-3.8-5.4s-4.5,3.5-4.5,6.2v18.4h-6.8v-19.3c0-2.6-.5-5.4-3.8-5.4s-4.5,3.5-4.5,6.2v18.4h-6.9v-22c0-2.4-.1-4.8-.2-7.2h6.4l.2,4.3c1.5-3,4.2-4.9,7.7-4.9s6.1,1.8,7.3,4.9c1.8-3.1,4.3-4.9,7.7-4.9,5.9,0,8.2,4.2,8.2,10v19.8h-6.9Z"></path>
				<path class="st2" d="M247,42.6c-3.7,0-6.4-1.7-7.9-4.8v4.1h-6.7V0h7v16.9c1.6-2.9,4-4.8,7.8-4.8,8.2,0,10.2,8.7,10.2,15.1s-2.4,15.4-10.4,15.4ZM244.8,17.2c-4.7,0-5.5,6.3-5.5,10s.5,10.4,5.5,10.4,5.3-7.1,5.3-10.4-.6-10-5.3-10Z"></path>
				<path class="st2" d="M280.4,42v-17.2h-11.3v17.2h-7.4V3.1h7.4v15.9h11.3V3.1h7.4v38.8h-7.4Z"></path>
			</g>
			<path id="UT" class="st2" d="M147.4,55.8v-6.5h3.8v.8h-2.8v2h2.6v.8h-2.6v2.1h2.9v.8h-3.9ZM152.5,49.9v-.9h1v.9h-1ZM152.5,55.8v-4.9h1v4.9h-1ZM158.1,55.8v-2.9c0-.7-.1-1.3-1-1.3s-1.2.8-1.2,1.6v2.6h-1v-3.7c0-.4,0-.7,0-1.1h.9v.8c.4-.6.9-.9,1.6-.9,1.2,0,1.7.8,1.7,1.9v3.1h-1ZM165.9,55.9c-1.6,0-2.6-.9-2.6-2.4v-4.1h1.1v4.1c0,.9.5,1.6,1.5,1.6s1.5-.7,1.5-1.6v-4.1h1.1v4.1c0,1.6-1.1,2.5-2.6,2.5ZM173.2,55.8v-2.9c0-.7-.1-1.3-1-1.3s-1.2.8-1.2,1.6v2.6h-1v-3.7c0-.4,0-.7,0-1.1h.9v.8c.4-.6.9-.9,1.6-.9,1.2,0,1.7.8,1.7,1.9v3.1h-1ZM177.2,55.9c-1.1,0-1.3-.7-1.3-1.7v-2.6h-.9v-.7h.9v-1l1-.3v1.4h1.1v.7h-1.1v2.7c0,.4.1.8.6.8s.4,0,.5-.1v.7c-.2.1-.6.2-.9.2ZM179.8,53.6c0,.9.6,1.6,1.5,1.6s1-.1,1.4-.3v.8c-.4.2-1.1.3-1.6.3-1.6,0-2.4-1-2.4-2.6s.9-2.5,2.3-2.5,2.1,1.1,2.1,2.5v.3h-3.3ZM181,51.5c-.8,0-1.2.9-1.2,1.5h2.4c0-.7-.3-1.5-1.1-1.5ZM186.8,51.8c-.1,0-.3,0-.4,0-1,0-1.2,1-1.2,1.7v2.3h-1v-3.7c0-.4,0-.7,0-1.1h.9v.9c.2-.5.8-1,1.4-1s.3,0,.4,0v.9ZM190.9,55.8v-2.9c0-.7-.1-1.3-1-1.3s-1.2.8-1.2,1.6v2.6h-1v-3.7c0-.4,0-.7,0-1.1h.9v.8c.4-.6.9-.9,1.6-.9,1.2,0,1.7.8,1.7,1.9v3.1h-1ZM194,53.6c0,.9.6,1.6,1.5,1.6s1-.1,1.4-.3v.8c-.4.2-1.1.3-1.6.3-1.6,0-2.4-1-2.4-2.6s.9-2.5,2.3-2.5,2.1,1.1,2.1,2.5v.3h-3.3ZM195.2,51.5c-.8,0-1.2.9-1.2,1.5h2.4c0-.7-.3-1.5-1.1-1.5ZM201.6,55.8v-2.9c0-.7-.1-1.3-1-1.3s-1.2.8-1.2,1.5v2.6h-1v-7h1v3c.3-.6.8-.9,1.5-.9,1.2,0,1.7.8,1.7,1.9v3.1h-1ZM210,55.8v-3.1c0-.6-.2-1.1-.9-1.1s-1.1.8-1.1,1.5v2.6h-1v-3.1c0-.6-.2-1.1-.9-1.1s-1.1.8-1.1,1.5v2.6h-1v-3.7c0-.4,0-.7,0-1.1h.9v.8c.4-.6.9-.9,1.6-.9s1.3.5,1.5,1c.2-.6.9-1,1.5-1,1.1,0,1.6.7,1.6,1.7v3.2h-1ZM213.1,53.6c0,.9.6,1.6,1.5,1.6s1-.1,1.4-.3v.8c-.4.2-1.1.3-1.6.3-1.6,0-2.4-1-2.4-2.6s.9-2.5,2.3-2.5,2.1,1.1,2.1,2.5v.3h-3.3ZM214.3,51.5c-.8,0-1.2.9-1.2,1.5h2.4c0-.7-.3-1.5-1.1-1.5ZM220.7,55.8v-2.9c0-.7-.1-1.3-1-1.3s-1.2.8-1.2,1.6v2.6h-1v-3.7c0-.4,0-.7,0-1.1h.9v.8c.4-.6.9-.9,1.6-.9,1.2,0,1.7.8,1.7,1.9v3.1h-1ZM229.3,55.8v-.8c-.4.6-.9.9-1.6.9-1.5,0-2.1-1.3-2.1-2.6s.6-2.5,2.1-2.5,1.3.3,1.5.9v-3h1v5.5c0,.5,0,1,0,1.5h-.9ZM227.9,51.6c-1,0-1.2,1-1.2,1.8s.2,1.8,1.3,1.8,1.3-1,1.3-1.8-.3-1.8-1.3-1.8ZM232.2,53.6c0,.9.6,1.6,1.5,1.6s1-.1,1.4-.3v.8c-.4.2-1.1.3-1.6.3-1.6,0-2.4-1-2.4-2.6s.9-2.5,2.3-2.5,2.1,1.1,2.1,2.5v.3h-3.3ZM233.5,51.5c-.8,0-1.2.9-1.2,1.5h2.4c0-.7-.3-1.5-1.1-1.5ZM239.3,51.8c-.1,0-.3,0-.4,0-1,0-1.2,1-1.2,1.7v2.3h-1v-3.7c0-.4,0-.7,0-1.1h.9v.9c.2-.5.8-1,1.4-1s.3,0,.4,0v.9ZM245.2,53.2h-1.1v2.6h-1.1v-6.5h2.2c1.2,0,2.2.7,2.2,1.9s-1,2-2.2,2ZM245,50.1h-.9v2.3h.5c.9,0,1.7-.1,1.7-1.2s-.6-1.2-1.3-1.2ZM250.3,55.8h-1.7v-6.5h2c2.1,0,3.4,1.1,3.4,3.2s-1.5,3.2-3.7,3.2ZM250.5,50.1h-.8v4.9h.5c1.7,0,2.7-.7,2.7-2.4s-.8-2.5-2.4-2.5ZM258.1,55.8h-1.2l-2.5-6.5h1.2l2,5.5,2-5.5h1.1l-2.5,6.5ZM260.4,55.8v-1h1.1v1h-1.1ZM264.8,58c-.6,0-1.1,0-1.7-.3v-.8c.5.2,1,.3,1.5.3,1.2,0,1.6-.7,1.6-1.7v-.6c-.3.5-.9.8-1.5.8-1.5,0-2-1.2-2-2.4s.6-2.5,2-2.5,1.2.3,1.6.9v-.8h1v4.6c0,1.6-.8,2.5-2.5,2.5ZM265,51.6c-1,0-1.3,1-1.3,1.8s.2,1.7,1.2,1.7,1.3-1,1.3-1.7-.3-1.8-1.3-1.8ZM271.3,51.8c-.1,0-.3,0-.4,0-1,0-1.2,1-1.2,1.7v2.3h-1v-3.7c0-.4,0-.7,0-1.1h.9v.9c.2-.5.8-1,1.4-1s.3,0,.4,0v.9ZM274.2,55.9c-1.6,0-2.5-1.1-2.5-2.6s1-2.5,2.5-2.5,2.5,1,2.5,2.5-.9,2.6-2.5,2.6ZM274.2,51.6c-1,0-1.4.9-1.4,1.8s.4,1.8,1.4,1.8,1.4-.9,1.4-1.8-.3-1.8-1.4-1.8ZM281,55.8v-.8c-.4.6-.9.9-1.6.9-1.2,0-1.7-.8-1.7-1.9v-3.1h1v2.9c0,.7.1,1.3,1,1.3s1.2-.8,1.2-1.6v-2.6h1v3.7c0,.4,0,.7,0,1.1h-.9ZM285.8,55.9c-.6,0-1.3-.3-1.5-.9v2.9h-1v-5.4c0-.6,0-1.1,0-1.5h.9v.8c.3-.6,1-.9,1.6-.9,1.5,0,2,1.2,2,2.5s-.6,2.6-2.1,2.6ZM285.5,51.6c-1,0-1.3,1-1.3,1.8s.3,1.8,1.3,1.8,1.3-1,1.3-1.8-.2-1.8-1.2-1.8Z"></path>
		</g>
	</g>
	<g id="Wortmarke">
		<g>
			<path class="st2" d="M7.4,25.7c-1.6,1.6-4.4,1.5-6-.1-1.7-1.7-1.8-4.4-.1-6,1.8-1.8,2.7-.9,4.7-2.9,2-2,1.1-2.9,2.9-4.7,1.6-1.6,4.4-1.5,6,.1,1.7,1.7,1.8,4.4.1,6-1.8,1.8-2.7.9-4.7,2.9-2,2-1.1,2.9-2.9,4.7Z"></path>
			<path class="st0" d="M16.3,10.5c-1.7-1.7-1.7-4.5,0-6.2,1.7-1.7,4.5-1.7,6.2,0,1.7,1.7,1.7,4.5,0,6.2-1.7,1.7-4.5,1.7-6.2,0Z"></path>
			<path class="st0" d="M30.3,18c1.6-1.6,1.5-4.4-.1-6-1.7-1.7-4.4-1.8-6-.1-1.8,1.8-.9,2.7-2.9,4.7-2,2-2.9,1.1-4.7,2.9-1.6,1.6-1.5,4.4.1,6,1.7,1.7,4.4,1.8,6,.1,1.8-1.8.9-2.7,2.9-4.7,2-2,2.9-1.1,4.7-2.9Z"></path>
			<path class="st2" d="M15.2,27c-1.7-1.7-4.5-1.7-6.2,0-1.7,1.7-1.7,4.5,0,6.2,1.7,1.7,4.5,1.7,6.2,0,1.7-1.7,1.7-4.5,0-6.2Z"></path>
			<path class="st0" d="M22.6,41c-1.6,1.6-4.4,1.5-6-.1-1.7-1.7-1.8-4.4-.1-6,1.8-1.8,2.7-.9,4.7-2.9,2-2,1.1-2.9,2.9-4.7,1.6-1.6,4.4-1.5,6,.1,1.7,1.7,1.8,4.4.1,6-1.8,1.8-2.7.9-4.7,2.9-2,2-1.1,2.9-2.9,4.7Z"></path>
			<path class="st1" d="M31.6,25.8c-1.7-1.7-1.7-4.5,0-6.2,1.7-1.7,4.5-1.7,6.2,0,1.7,1.7,1.7,4.5,0,6.2-1.7,1.7-4.5,1.7-6.2,0Z"></path>
			<g id="PDV_GmbH">
				<path class="st2" d="M66.1,26.8h-4.1v15.1h-7.3V3.1h11c7.8,0,13.2,3.8,13.2,11.8s-5.2,11.9-12.8,11.9ZM64.4,8.6h-2.5v12.9h3c4.4,0,6.5-2.3,6.5-6.5s-2.6-6.4-7-6.4Z"></path>
				<path class="st2" d="M92.9,42h-10.3V3.1h9.6c12.8,0,19,7.5,19,19.4s-6.3,19.4-18.3,19.4ZM92.3,8.7h-2.3v27.6h2.8c8.2,0,10.9-6.5,10.9-13.8s-2.6-13.9-11.3-13.9Z"></path>
				<path class="st2" d="M131.8,42h-8.2L112.1,3.1h7.9l7.9,30.8,7.6-30.8h7.6l-11.3,38.8Z"></path>
				<path class="st2" d="M174.1,42.6c-12.3,0-17.8-8.7-17.8-20s7-20,18.9-20,6.8.8,9.3,1.7l-.4,6.1c-2.4-1.3-5.1-2.3-8.6-2.3-8,0-11.7,7.1-11.7,14.5s2.9,14.5,11,14.5,2.6-.2,3.8-.8v-10.7h-5.5v-5.2h12.3v20.2c-3.3,1.5-7.8,2.1-11.3,2.1Z"></path>
				<path class="st2" d="M220.5,42v-19.3c0-2.6-.5-5.4-3.8-5.4s-4.5,3.5-4.5,6.2v18.4h-6.8v-19.3c0-2.6-.5-5.4-3.8-5.4s-4.5,3.5-4.5,6.2v18.4h-6.9v-22c0-2.4-.1-4.8-.2-7.2h6.4l.2,4.3c1.5-3,4.2-4.9,7.7-4.9s6.1,1.8,7.3,4.9c1.8-3.1,4.3-4.9,7.7-4.9,5.9,0,8.2,4.2,8.2,10v19.8h-6.9Z"></path>
				<path class="st2" d="M247,42.6c-3.7,0-6.4-1.7-7.9-4.8v4.1h-6.7V0h7v16.9c1.6-2.9,4-4.8,7.8-4.8,8.2,0,10.2,8.7,10.2,15.1s-2.4,15.4-10.4,15.4ZM244.8,17.2c-4.7,0-5.5,6.3-5.5,10s.5,10.4,5.5,10.4,5.3-7.1,5.3-10.4-.6-10-5.3-10Z"></path>
				<path class="st2" d="M280.4,42v-17.2h-11.3v17.2h-7.4V3.1h7.4v15.9h11.3V3.1h7.4v38.8h-7.4Z"></path>
			</g>
			<path id="UT" class="st2" d="M147.4,55.8v-6.5h3.8v.8h-2.8v2h2.6v.8h-2.6v2.1h2.9v.8h-3.9ZM152.5,49.9v-.9h1v.9h-1ZM152.5,55.8v-4.9h1v4.9h-1ZM158.1,55.8v-2.9c0-.7-.1-1.3-1-1.3s-1.2.8-1.2,1.6v2.6h-1v-3.7c0-.4,0-.7,0-1.1h.9v.8c.4-.6.9-.9,1.6-.9,1.2,0,1.7.8,1.7,1.9v3.1h-1ZM165.9,55.9c-1.6,0-2.6-.9-2.6-2.4v-4.1h1.1v4.1c0,.9.5,1.6,1.5,1.6s1.5-.7,1.5-1.6v-4.1h1.1v4.1c0,1.6-1.1,2.5-2.6,2.5ZM173.2,55.8v-2.9c0-.7-.1-1.3-1-1.3s-1.2.8-1.2,1.6v2.6h-1v-3.7c0-.4,0-.7,0-1.1h.9v.8c.4-.6.9-.9,1.6-.9,1.2,0,1.7.8,1.7,1.9v3.1h-1ZM177.2,55.9c-1.1,0-1.3-.7-1.3-1.7v-2.6h-.9v-.7h.9v-1l1-.3v1.4h1.1v.7h-1.1v2.7c0,.4.1.8.6.8s.4,0,.5-.1v.7c-.2.1-.6.2-.9.2ZM179.8,53.6c0,.9.6,1.6,1.5,1.6s1-.1,1.4-.3v.8c-.4.2-1.1.3-1.6.3-1.6,0-2.4-1-2.4-2.6s.9-2.5,2.3-2.5,2.1,1.1,2.1,2.5v.3h-3.3ZM181,51.5c-.8,0-1.2.9-1.2,1.5h2.4c0-.7-.3-1.5-1.1-1.5ZM186.8,51.8c-.1,0-.3,0-.4,0-1,0-1.2,1-1.2,1.7v2.3h-1v-3.7c0-.4,0-.7,0-1.1h.9v.9c.2-.5.8-1,1.4-1s.3,0,.4,0v.9ZM190.9,55.8v-2.9c0-.7-.1-1.3-1-1.3s-1.2.8-1.2,1.6v2.6h-1v-3.7c0-.4,0-.7,0-1.1h.9v.8c.4-.6.9-.9,1.6-.9,1.2,0,1.7.8,1.7,1.9v3.1h-1ZM194,53.6c0,.9.6,1.6,1.5,1.6s1-.1,1.4-.3v.8c-.4.2-1.1.3-1.6.3-1.6,0-2.4-1-2.4-2.6s.9-2.5,2.3-2.5,2.1,1.1,2.1,2.5v.3h-3.3ZM195.2,51.5c-.8,0-1.2.9-1.2,1.5h2.4c0-.7-.3-1.5-1.1-1.5ZM201.6,55.8v-2.9c0-.7-.1-1.3-1-1.3s-1.2.8-1.2,1.5v2.6h-1v-7h1v3c.3-.6.8-.9,1.5-.9,1.2,0,1.7.8,1.7,1.9v3.1h-1ZM210,55.8v-3.1c0-.6-.2-1.1-.9-1.1s-1.1.8-1.1,1.5v2.6h-1v-3.1c0-.6-.2-1.1-.9-1.1s-1.1.8-1.1,1.5v2.6h-1v-3.7c0-.4,0-.7,0-1.1h.9v.8c.4-.6.9-.9,1.6-.9s1.3.5,1.5,1c.2-.6.9-1,1.5-1,1.1,0,1.6.7,1.6,1.7v3.2h-1ZM213.1,53.6c0,.9.6,1.6,1.5,1.6s1-.1,1.4-.3v.8c-.4.2-1.1.3-1.6.3-1.6,0-2.4-1-2.4-2.6s.9-2.5,2.3-2.5,2.1,1.1,2.1,2.5v.3h-3.3ZM214.3,51.5c-.8,0-1.2.9-1.2,1.5h2.4c0-.7-.3-1.5-1.1-1.5ZM220.7,55.8v-2.9c0-.7-.1-1.3-1-1.3s-1.2.8-1.2,1.6v2.6h-1v-3.7c0-.4,0-.7,0-1.1h.9v.8c.4-.6.9-.9,1.6-.9,1.2,0,1.7.8,1.7,1.9v3.1h-1ZM229.3,55.8v-.8c-.4.6-.9.9-1.6.9-1.5,0-2.1-1.3-2.1-2.6s.6-2.5,2.1-2.5,1.3.3,1.5.9v-3h1v5.5c0,.5,0,1,0,1.5h-.9ZM227.9,51.6c-1,0-1.2,1-1.2,1.8s.2,1.8,1.3,1.8,1.3-1,1.3-1.8-.3-1.8-1.3-1.8ZM232.2,53.6c0,.9.6,1.6,1.5,1.6s1-.1,1.4-.3v.8c-.4.2-1.1.3-1.6.3-1.6,0-2.4-1-2.4-2.6s.9-2.5,2.3-2.5,2.1,1.1,2.1,2.5v.3h-3.3ZM233.5,51.5c-.8,0-1.2.9-1.2,1.5h2.4c0-.7-.3-1.5-1.1-1.5ZM239.3,51.8c-.1,0-.3,0-.4,0-1,0-1.2,1-1.2,1.7v2.3h-1v-3.7c0-.4,0-.7,0-1.1h.9v.9c.2-.5.8-1,1.4-1s.3,0,.4,0v.9ZM245.2,53.2h-1.1v2.6h-1.1v-6.5h2.2c1.2,0,2.2.7,2.2,1.9s-1,2-2.2,2ZM245,50.1h-.9v2.3h.5c.9,0,1.7-.1,1.7-1.2s-.6-1.2-1.3-1.2ZM250.3,55.8h-1.7v-6.5h2c2.1,0,3.4,1.1,3.4,3.2s-1.5,3.2-3.7,3.2ZM250.5,50.1h-.8v4.9h.5c1.7,0,2.7-.7,2.7-2.4s-.8-2.5-2.4-2.5ZM258.1,55.8h-1.2l-2.5-6.5h1.2l2,5.5,2-5.5h1.1l-2.5,6.5ZM260.4,55.8v-1h1.1v1h-1.1ZM264.8,58c-.6,0-1.1,0-1.7-.3v-.8c.5.2,1,.3,1.5.3,1.2,0,1.6-.7,1.6-1.7v-.6c-.3.5-.9.8-1.5.8-1.5,0-2-1.2-2-2.4s.6-2.5,2-2.5,1.2.3,1.6.9v-.8h1v4.6c0,1.6-.8,2.5-2.5,2.5ZM265,51.6c-1,0-1.3,1-1.3,1.8s.2,1.7,1.2,1.7,1.3-1,1.3-1.7-.3-1.8-1.3-1.8ZM271.3,51.8c-.1,0-.3,0-.4,0-1,0-1.2,1-1.2,1.7v2.3h-1v-3.7c0-.4,0-.7,0-1.1h.9v.9c.2-.5.8-1,1.4-1s.3,0,.4,0v.9ZM274.2,55.9c-1.6,0-2.5-1.1-2.5-2.6s1-2.5,2.5-2.5,2.5,1,2.5,2.5-.9,2.6-2.5,2.6ZM274.2,51.6c-1,0-1.4.9-1.4,1.8s.4,1.8,1.4,1.8,1.4-.9,1.4-1.8-.3-1.8-1.4-1.8ZM281,55.8v-.8c-.4.6-.9.9-1.6.9-1.2,0-1.7-.8-1.7-1.9v-3.1h1v2.9c0,.7.1,1.3,1,1.3s1.2-.8,1.2-1.6v-2.6h1v3.7c0,.4,0,.7,0,1.1h-.9ZM285.8,55.9c-.6,0-1.3-.3-1.5-.9v2.9h-1v-5.4c0-.6,0-1.1,0-1.5h.9v.8c.3-.6,1-.9,1.6-.9,1.5,0,2,1.2,2,2.5s-.6,2.6-2.1,2.6ZM285.5,51.6c-1,0-1.3,1-1.3,1.8s.3,1.8,1.3,1.8,1.3-1,1.3-1.8-.2-1.8-1.2-1.8Z"></path>
		</g>
	</g></svg>
